<svg width="131" height="50" viewBox="0 0 131 50" fill="none" xmlns="http://www.w3.org/2000/svg">
<path d="M20.5678 29.5716H0.0439758V32.7518H20.5678V29.5716Z" fill="#ED1E3A"/>
<path d="M11.5347 20.6186H8.30187C6.1206 20.6744 4.00279 19.8816 2.39429 18.4072C1.62425 17.7188 1.012 16.8722 0.59943 15.9253C0.186862 14.9784 -0.0162875 13.9536 0.00387946 12.9209C-0.0307338 11.8759 0.166626 10.8363 0.581767 9.87672C0.996908 8.91716 1.61951 8.06152 2.40482 7.37131C4.03563 5.95255 6.14125 5.20054 8.30187 5.26522H10.0078V0H13.9041V18.4809C13.9049 18.7685 13.842 19.0526 13.72 19.3129C13.5981 19.5733 13.42 19.8034 13.1985 19.9868C12.7459 20.4037 12.15 20.63 11.5347 20.6186ZM8.30187 17.2805H10.0078V8.58233H8.30187C7.71954 8.56507 7.13971 8.66525 6.59695 8.87693C6.05419 9.0886 5.55962 9.40743 5.14273 9.81438C4.72589 10.225 4.39917 10.718 4.18341 11.262C3.96766 11.8059 3.8676 12.3888 3.88961 12.9735C3.86634 13.5603 3.96789 14.1453 4.18754 14.6899C4.40719 15.2345 4.73994 15.7262 5.1638 16.1326C5.58403 16.5234 6.07809 16.8262 6.61698 17.0233C7.15587 17.2204 7.72871 17.3078 8.30187 17.2805Z" fill="#ED1E3A"/>
<path d="M17.3897 3.54778C17.1996 3.40017 17.0471 3.2097 16.9446 2.99192C16.8422 2.77414 16.7926 2.53523 16.8 2.29466C16.7926 2.05258 16.8421 1.81211 16.9445 1.59264C17.047 1.37317 17.1994 1.18081 17.3897 1.03099C17.8098 0.703848 18.332 0.53596 18.864 0.557108C19.3909 0.537243 19.9083 0.701027 20.3277 1.02045C20.5073 1.17953 20.651 1.3749 20.7494 1.59363C20.8479 1.81237 20.8988 2.04952 20.8988 2.28939C20.8988 2.52925 20.8479 2.76637 20.7494 2.98511C20.651 3.20384 20.5073 3.39921 20.3277 3.55829C19.9083 3.87771 19.3909 4.0415 18.864 4.02163C18.332 4.04278 17.8098 3.87492 17.3897 3.54778ZM16.9053 20.6176V5.24317H20.7911V20.6176H16.9053Z" fill="#ED1E3A"/>
<path d="M27.7944 25.7038V22.3656H30.3954C31.0784 22.3846 31.7474 22.169 32.2909 21.7548C32.5396 21.566 32.7393 21.32 32.8731 21.0378C33.0069 20.7556 33.0708 20.4453 33.0596 20.1332H31.3537C29.1945 20.1886 27.0921 19.4378 25.4566 18.0271C24.7049 17.3545 24.1035 16.5308 23.6918 15.6099C23.28 14.689 23.0672 13.6916 23.0672 12.6829C23.0672 11.6741 23.28 10.6768 23.6918 9.75587C24.1035 8.83498 24.7049 8.01131 25.4566 7.33867C27.0842 5.9144 29.1921 5.1616 31.3537 5.23258H34.5865C35.2014 5.2191 35.799 5.4371 36.2608 5.84336C36.479 6.02194 36.6547 6.24693 36.7749 6.50197C36.8951 6.75701 36.9569 7.03566 36.9559 7.31762V20.1437C36.9775 20.9013 36.8289 21.6542 36.5209 22.3468C36.2129 23.0393 35.7533 23.6539 35.1762 24.1453C34.0089 25.1593 32.5102 25.7101 30.964 25.6933L27.7944 25.7038ZM31.3537 16.8687H33.0596V8.44438H31.3537C30.1845 8.40658 29.0482 8.8346 28.1945 9.63433C27.7965 10.0263 27.4805 10.4934 27.2647 11.0087C27.049 11.5239 26.9379 12.0769 26.9379 12.6355C26.9379 13.1941 27.049 13.7471 27.2647 14.2623C27.4805 14.7776 27.7965 15.2447 28.1945 15.6367C28.6135 16.0407 29.1084 16.3576 29.6507 16.5691C30.193 16.7806 30.7718 16.8824 31.3537 16.8687Z" fill="#ED1E3A"/>
<path d="M40.4193 3.54778C40.2292 3.40017 40.0767 3.2097 39.9742 2.99192C39.8717 2.77414 39.8222 2.53523 39.8296 2.29466C39.8222 2.05258 39.8717 1.81211 39.9741 1.59264C40.0765 1.37317 40.229 1.18081 40.4193 1.03099C40.8393 0.703848 41.3616 0.53596 41.8935 0.557108C42.4204 0.537243 42.9378 0.701027 43.3573 1.02045C43.5368 1.17953 43.6805 1.3749 43.779 1.59363C43.8774 1.81237 43.9283 2.04952 43.9283 2.28939C43.9283 2.52925 43.8774 2.76637 43.779 2.98511C43.6805 3.20384 43.5368 3.39921 43.3573 3.55829C42.9378 3.87771 42.4204 4.0415 41.8935 4.02163C41.3616 4.04278 40.8393 3.87492 40.4193 3.54778ZM39.9349 20.6176V5.24317H43.8733V20.6176H39.9349Z" fill="#ED1E3A"/>
<path d="M56.603 20.6195H53.8229C53.0574 20.6649 52.2904 20.5569 51.5671 20.3019C50.8438 20.047 50.1787 19.6501 49.6108 19.1347C49.0887 18.6107 48.6829 17.9826 48.4199 17.2913C48.1568 16.6 48.0423 15.8611 48.0839 15.1226V8.67796H45.525V5.24502H48.0839V1.99112H52.0012V5.24502H56.9821V8.67796H52.0222V14.912C52.0003 15.5036 52.2078 16.0808 52.6014 16.5231C52.8002 16.7347 53.0424 16.9007 53.3115 17.0098C53.5805 17.1188 53.8699 17.1683 54.1599 17.1549H56.603V20.6195Z" fill="#ED1E3A"/>
<path d="M68.9452 20.6182H65.7123C63.5311 20.674 61.4132 19.8812 59.8047 18.4068C59.0347 17.7184 58.4225 16.8718 58.0099 15.9249C57.5973 14.978 57.3942 13.9532 57.4143 12.9205C57.3797 11.8755 57.5771 10.8359 57.9922 9.87632C58.4074 8.91677 59.03 8.06112 59.8153 7.37091C61.4461 5.95215 63.5517 5.20014 65.7123 5.26482H68.9452C69.561 5.24605 70.1604 5.46474 70.6195 5.87561C70.8377 6.05418 71.0133 6.27917 71.1336 6.53421C71.2538 6.78925 71.3156 7.0679 71.3145 7.34986V18.5016C71.3153 18.7891 71.2525 19.0732 71.1305 19.3336C71.0085 19.5939 70.8304 19.8241 70.609 20.0074C70.1531 20.4167 69.5575 20.6354 68.9452 20.6182ZM65.7123 17.2801H67.4183V8.58194H65.7123C65.13 8.56468 64.5502 8.66485 64.0074 8.87653C63.4646 9.08821 62.9701 9.40703 62.5532 9.81398C62.1363 10.2246 61.8096 10.7176 61.5939 11.2616C61.3781 11.8055 61.2781 12.3884 61.3001 12.9731C61.2768 13.5599 61.3784 14.1449 61.598 14.6895C61.8177 15.2341 62.1504 15.7258 62.5743 16.1322C62.9945 16.523 63.4886 16.8258 64.0274 17.0229C64.5663 17.22 65.1392 17.3074 65.7123 17.2801Z" fill="#ED1E3A"/>
<path d="M74.2318 20.6186V0H78.128V20.6186H74.2318Z" fill="#ED1E3A"/>
<path d="M27.741 49.9979V46.6702H30.342C31.0243 46.6842 31.6916 46.4692 32.2375 46.0595C32.4857 45.8678 32.6849 45.6198 32.8186 45.336C32.9522 45.0523 33.0165 44.7408 33.0062 44.4273H31.3002C29.1411 44.4827 27.0387 43.7318 25.4032 42.3212C24.6515 41.6485 24.0501 40.8249 23.6384 39.904C23.2266 38.9831 23.0138 37.9857 23.0138 36.977C23.0138 35.9683 23.2266 34.9709 23.6384 34.05C24.0501 33.1291 24.6515 32.3054 25.4032 31.6328C27.0308 30.2085 29.1386 29.4557 31.3002 29.5267H34.5331C35.148 29.5132 35.7456 29.7312 36.2074 30.1375C36.4251 30.3165 36.6003 30.5416 36.7205 30.7966C36.8406 31.0515 36.9028 31.3299 36.9024 31.6117V44.4378C36.9241 45.1955 36.7755 45.9483 36.4675 46.6409C36.1594 47.3334 35.6999 47.948 35.1228 48.4394C33.9555 49.4534 32.4568 50.0041 30.9106 49.9873L27.741 49.9979ZM31.3002 41.1734H33.0062V32.749H31.3002C30.1311 32.7112 28.9948 33.1392 28.1411 33.939C27.7431 34.3309 27.4271 34.7981 27.2113 35.3133C26.9956 35.8286 26.8845 36.3816 26.8845 36.9401C26.8845 37.4987 26.9956 38.0517 27.2113 38.5669C27.4271 39.0822 27.7431 39.5494 28.1411 39.9413C28.5578 40.3506 29.0517 40.673 29.594 40.8899C30.1363 41.1068 30.7162 41.2139 31.3002 41.2049V41.1734Z" fill="#ED1E3A"/>
<path d="M43.5682 44.9429H39.6614V34.9917C39.6283 34.2608 39.75 33.5312 40.0186 32.8506C40.2871 32.1701 40.6965 31.554 41.2199 31.0428C41.7745 30.5406 42.4227 30.1528 43.1275 29.9017C43.8322 29.6505 44.5796 29.5408 45.3268 29.579H49.1914V33.0119H45.9165C45.6012 32.9846 45.2838 33.0267 44.9865 33.135C44.6892 33.2434 44.4192 33.4155 44.1955 33.6392C43.9717 33.863 43.7996 34.133 43.6913 34.4303C43.5829 34.7276 43.5409 35.045 43.5682 35.3602V44.9429Z" fill="#ED1E3A"/>
<path d="M60.9223 44.9427H57.6895C55.5133 44.9986 53.3999 44.2098 51.7924 42.7418C51.0361 42.0354 50.433 41.1811 50.0208 40.2319C49.6085 39.2827 49.3957 38.2588 49.3957 37.2239C49.3957 36.189 49.6085 35.1651 50.0208 34.2159C50.433 33.2667 51.0361 32.4123 51.7924 31.706C53.4189 30.287 55.5214 29.5347 57.6789 29.5999H60.9118C61.5305 29.5827 62.1327 29.8009 62.5966 30.2106C62.8107 30.3921 62.9828 30.6179 63.1009 30.8725C63.2191 31.127 63.2806 31.4042 63.2811 31.6849V42.8366C63.2826 43.1247 63.2212 43.4097 63.1011 43.6716C62.9811 43.9335 62.8053 44.1661 62.5861 44.353C62.1234 44.7483 61.5307 44.9584 60.9223 44.9427ZM57.6895 41.573H59.3954V32.8748H57.6895C57.107 32.8563 56.5268 32.956 55.9839 33.1677C55.4409 33.3795 54.9465 33.699 54.5303 34.1069C53.7173 34.9407 53.2622 36.0593 53.2622 37.2239C53.2622 38.3885 53.7173 39.507 54.5303 40.3409C54.9472 40.7478 55.4418 41.0667 55.9845 41.2783C56.5273 41.49 57.1071 41.5902 57.6895 41.573Z" fill="#ED1E3A"/>
<path d="M66.2201 50V31.656C66.2206 31.3753 66.2821 31.0981 66.4003 30.8436C66.5185 30.589 66.6906 30.3632 66.9046 30.1817C67.3583 29.7759 67.9493 29.5576 68.5579 29.5709H71.8223C73.9962 29.5101 76.1081 30.2997 77.7088 31.7718C78.4621 32.4789 79.0625 33.3329 79.4729 34.281C79.8833 35.2292 80.095 36.2513 80.095 37.2845C80.095 38.3176 79.8833 39.3398 79.4729 40.288C79.0625 41.2361 78.4621 42.0901 77.7088 42.7972C76.0893 44.221 73.9881 44.9742 71.8328 44.9033H70.1269V50H66.2201ZM70.1164 41.5756H71.8223C72.4049 41.5953 72.9855 41.4963 73.5286 41.2845C74.0717 41.0726 74.566 40.7525 74.9814 40.3436C75.7847 39.5047 76.2331 38.388 76.2331 37.2266C76.2331 36.0651 75.7847 34.9485 74.9814 34.1096C74.566 33.7006 74.0717 33.3805 73.5286 33.1687C72.9855 32.9569 72.4049 32.8578 71.8223 32.8775H70.1164V41.5756Z" fill="#ED1E3A"/>
<path d="M82.3 44.9457V24.3271H86.1962V29.5923H89.1553C89.9341 29.5537 90.7129 29.6697 91.4467 29.9336C92.1805 30.1975 92.8547 30.604 93.4306 31.1298C93.9744 31.6724 94.3987 32.3228 94.6762 33.0391C94.9536 33.7555 95.0782 34.5219 95.0418 35.2893V44.9668H91.1455V35.6263C91.1859 34.935 90.9555 34.2551 90.5032 33.7308C90.2716 33.4904 89.9908 33.3029 89.68 33.1811C89.3692 33.0593 89.0357 33.0062 88.7025 33.0253H86.1541V44.9457H82.3Z" fill="#ED1E3A"/>
<path d="M98.3892 27.8841C98.1984 27.737 98.0454 27.5467 97.9429 27.3287C97.8403 27.1108 97.7912 26.8716 97.7995 26.6309C97.792 26.3889 97.8415 26.1484 97.944 25.9289C98.0464 25.7095 98.1989 25.5171 98.3892 25.3673C98.8184 25.0626 99.3317 24.8989 99.8581 24.8989C100.385 24.8989 100.898 25.0626 101.327 25.3673C101.505 25.5282 101.648 25.7248 101.746 25.9443C101.843 26.1638 101.894 26.4013 101.894 26.6415C101.894 26.8817 101.843 27.1192 101.746 27.3387C101.648 27.5582 101.505 27.7547 101.327 27.9156C100.897 28.2174 100.384 28.3793 99.8581 28.3793C99.3325 28.3793 98.8196 28.2174 98.3892 27.9156V27.8841ZM97.9047 44.9539V29.5689H101.79V44.9434L97.9047 44.9539Z" fill="#ED1E3A"/>
<path d="M104.802 44.9457V24.3271H108.687V35.4999H110.72L114.426 29.5713H118.702L113.91 37.1321L118.849 44.9457H114.216L110.604 38.9855H108.666V44.9457H104.802Z" fill="#ED1E3A"/>
<path d="M119.208 44.943V41.6785H124.832C125.035 41.6885 125.238 41.6583 125.43 41.5896C125.621 41.5209 125.797 41.4152 125.948 41.2784C126.092 41.1445 126.205 40.9811 126.279 40.7993C126.354 40.6175 126.388 40.4216 126.38 40.2253C126.38 39.3829 125.685 38.8985 124.274 38.8037C122.799 38.8163 121.355 38.3792 120.135 37.5506C119.655 37.1402 119.278 36.6218 119.037 36.038C118.795 35.4541 118.695 34.8213 118.745 34.1914C118.74 33.5714 118.866 32.9572 119.114 32.3892C119.363 31.8212 119.729 31.3121 120.188 30.8953C120.666 30.4449 121.228 30.093 121.843 29.8599C122.457 29.6269 123.111 29.5171 123.768 29.5369H129.739V32.7908H124.116C123.727 32.7883 123.351 32.931 123.062 33.191C122.924 33.3136 122.814 33.4646 122.74 33.6336C122.665 33.8026 122.628 33.9857 122.631 34.1703C122.631 35.0654 123.326 35.5498 124.737 35.5919C126.212 35.5897 127.653 36.0298 128.875 36.8556C129.359 37.2666 129.739 37.786 129.984 38.3716C130.229 38.9571 130.333 39.5922 130.286 40.2253C130.294 40.8492 130.167 41.4674 129.914 42.038C129.662 42.6085 129.29 43.118 128.823 43.5319C127.858 44.4454 126.571 44.9412 125.242 44.9114L119.208 44.943Z" fill="#ED1E3A"/>
</svg>
