<svg width="20" height="20" viewBox="0 0 20 20" fill="none" xmlns="http://www.w3.org/2000/svg">
<g clip-path="url(#clip0_279_3105)">
<circle cx="10.0195" cy="9.98047" r="9.16016" fill="#FFB818"/>
<path d="M9.60938 5.07813C9.41407 5.17969 9.26954 5.34375 9.19922 5.54297C9.14844 5.69141 9.14063 6.11719 9.14063 8.75C9.14063 12.0703 9.13672 11.9961 9.36719 12.2383C9.53907 12.418 9.73438 12.5 10 12.5C10.3906 12.5 10.707 12.2734 10.8164 11.918C10.8789 11.707 10.8789 5.79297 10.8164 5.58203C10.7578 5.38672 10.5742 5.17188 10.3867 5.07813C10.1875 4.97656 9.80079 4.97656 9.60938 5.07813Z" fill="white"/>
<path d="M9.68748 13.3633C8.99998 13.6523 8.96873 14.6015 9.6367 14.9375C9.81638 15.0273 10.1992 15.0195 10.3867 14.9218C10.957 14.6328 11.0039 13.832 10.4765 13.4609C10.3359 13.3633 10.2656 13.3398 10.0469 13.332C9.90232 13.3242 9.74216 13.3398 9.68748 13.3633Z" fill="white"/>
</g>
<defs>
<clipPath id="clip0_279_3105">
<rect width="20" height="20" fill="white"/>
</clipPath>
</defs>
</svg>
