<svg width="48" height="48" viewBox="0 0 48 48" fill="none" xmlns="http://www.w3.org/2000/svg">
<path opacity="0.15" d="M34.1097 47.3334H13.8876C5.97926 47.3334 0.666504 41.7868 0.666504 33.5301V14.4724C0.666504 6.21568 5.97926 0.666748 13.8876 0.666748H34.1121C42.0204 0.666748 47.3332 6.21568 47.3332 14.4724V33.5301C47.3332 41.7868 42.0204 47.3334 34.1097 47.3334Z" fill="#1F71ED"/>
<path fill-rule="evenodd" clip-rule="evenodd" d="M22.2382 16.2418C22.2382 19.4385 19.6366 22.0402 16.4399 22.0402C13.2409 22.0402 10.6416 19.4385 10.6416 16.2418C10.6416 13.0452 13.2409 10.4412 16.4399 10.4412C19.6366 10.4412 22.2382 13.0452 22.2382 16.2418ZM41.2675 28.8712C41.8112 29.3986 42.2008 30.0006 42.4575 30.6422C43.2345 32.5836 42.8308 34.9169 42.0002 36.8396C41.0155 39.1286 39.1302 40.8576 36.7548 41.6136C35.7002 41.9519 34.5942 42.0966 33.4905 42.0966H13.9348C11.9888 42.0966 10.2668 41.6439 8.85517 40.7946C7.97083 40.2626 7.8145 39.0376 8.47017 38.2396C9.56683 36.9096 10.6495 35.5749 11.7415 34.2286C13.8228 31.6526 15.2252 30.9059 16.7838 31.5616C17.4162 31.8322 18.0508 32.2406 18.7042 32.6699C20.4448 33.8226 22.8645 35.4046 26.0518 33.6872C28.2305 32.4959 29.4952 30.4574 30.596 28.683L30.6182 28.6472C30.6922 28.5285 30.7657 28.4098 30.8389 28.2915C31.2132 27.6866 31.5819 27.0909 31.9995 26.5426C32.5175 25.8636 34.4402 23.7402 36.9252 25.2522C38.5095 26.2042 39.8418 27.4922 41.2675 28.8712Z" fill="#5570F1"/>
</svg>
